<?xml version="1.0" standalone="no"?>
<!DOCTYPE svg PUBLIC "-//W3C//DTD SVG 20010904//EN"
 "http://www.w3.org/TR/2001/REC-SVG-20010904/DTD/svg10.dtd">
<svg version="1.0" xmlns="http://www.w3.org/2000/svg"
 width="428.000000pt" height="200.000000pt" viewBox="0 0 428.000000 200.000000"
 preserveAspectRatio="xMidYMid meet">

<g transform="translate(0.000000,200.000000) scale(0.100000,-0.100000)"
fill="#000000" stroke="none">
<path d="M1474 1961 c-23 -10 -51 -32 -63 -49 -42 -60 -51 -106 -51 -268 l0
-154 -59 7 c-52 5 -65 3 -104 -20 -39 -23 -76 -66 -104 -120 -8 -16 -12 -12
-27 27 -24 62 -85 116 -132 116 -21 0 -33 4 -29 10 8 13 72 13 80 0 10 -16
108 -70 128 -70 16 0 17 18 17 234 0 129 -4 237 -9 240 -14 9 -108 -81 -137
-130 -34 -59 -64 -60 -89 -4 -18 40 -114 140 -134 140 -6 0 -11 -21 -11 -47
l-1 -48 -20 28 c-28 37 -69 57 -117 57 -75 0 -130 -69 -209 -265 l-52 -130 -1
126 c0 141 -15 210 -56 259 -81 96 -188 76 -249 -45 l-30 -60 -3 -775 c-3
-807 -2 -834 39 -892 52 -72 163 -88 235 -33 62 48 74 87 74 264 l0 155 90
-180 c105 -209 145 -268 202 -294 50 -22 88 -14 133 30 31 30 32 30 49 11 65
-72 181 -32 231 78 l17 38 56 -60 c105 -109 178 -124 264 -52 l29 24 32 -19
c56 -34 135 -20 171 31 l15 22 37 -33 c107 -94 225 -92 329 5 l40 37 65 -33
c61 -31 72 -33 196 -37 73 -2 169 1 214 7 77 10 84 10 128 -13 69 -35 121 -41
187 -21 73 21 127 74 181 179 l41 79 37 -71 c84 -159 175 -217 300 -190 38 8
61 22 103 63 l55 53 38 -38 c34 -34 85 -58 98 -46 3 3 -9 9 -27 12 -20 4 -46
23 -70 51 l-39 44 -33 -39 c-59 -68 -103 -92 -172 -92 -113 0 -169 45 -245
198 -20 39 -39 72 -43 72 -3 0 -22 -33 -42 -72 -62 -125 -127 -185 -220 -202
-40 -7 -127 12 -160 36 -16 12 -14 15 18 41 33 26 36 27 64 12 58 -30 140 -7
200 56 41 43 114 195 134 279 64 267 39 624 -58 827 -83 171 -190 230 -307
166 -88 -48 -160 -178 -199 -358 -25 -114 -37 -381 -20 -414 12 -21 11 -22
-11 -19 -22 3 -23 7 -26 103 -7 214 31 422 103 571 52 107 83 147 144 186 51
32 132 38 179 14 50 -26 123 -115 159 -194 l36 -76 35 69 c44 89 83 138 139
176 87 61 146 59 243 -6 29 -19 53 -35 55 -35 2 0 4 64 4 143 1 78 4 158 6
177 4 27 3 30 -4 15 -5 -11 -10 -86 -10 -167 -1 -82 -4 -148 -7 -148 -3 0 -20
11 -38 25 -42 32 -98 55 -134 55 -78 0 -203 -104 -259 -218 l-30 -59 -33 70
c-44 91 -131 183 -184 192 -74 14 -131 1 -189 -43 -47 -35 -62 -55 -111 -154
-85 -170 -116 -324 -116 -578 0 -100 -2 -120 -15 -120 -13 0 -15 26 -16 173
-1 94 -4 352 -8 572 -6 386 -7 401 -28 441 -77 144 -215 133 -284 -21 -20 -45
-23 -67 -23 -202 -1 -84 -3 -153 -7 -153 -3 0 -20 16 -39 35 -45 47 -106 69
-164 61 -35 -6 -58 -18 -98 -55 l-53 -49 3 116 c6 211 -31 322 -121 362 -52
24 -52 24 -103 1z m135 -37 c60 -53 70 -97 72 -301 1 -95 4 -173 8 -173 4 0
15 14 25 31 23 40 89 87 133 95 55 10 110 -12 165 -67 27 -27 51 -49 53 -49 2
0 4 73 4 163 2 186 14 239 67 292 80 81 184 42 229 -86 12 -32 15 -97 15 -294
0 -306 12 -895 18 -877 5 17 119 16 173 -3 57 -20 112 -75 140 -139 18 -40 23
-70 23 -141 1 -111 -17 -177 -60 -220 -47 -48 -108 -59 -310 -60 l-171 0 -71
36 -70 36 -38 -38 c-97 -100 -216 -105 -313 -14 l-47 44 -35 -35 c-46 -46 -94
-54 -149 -25 l-40 21 -41 -30 c-23 -16 -56 -32 -74 -36 -49 -9 -117 28 -176
96 l-50 58 1 557 c0 544 1 558 21 598 49 97 105 132 195 123 l62 -6 4 172 c3
155 5 177 25 214 54 101 139 124 212 58z m-1362 6 c19 -11 44 -42 60 -72 26
-50 28 -62 33 -218 3 -91 8 -160 11 -155 4 6 24 55 44 110 41 110 86 203 119
248 78 106 216 53 245 -95 6 -32 8 -17 5 55 -2 53 -1 97 4 97 20 0 86 -68 114
-116 25 -46 34 -54 59 -54 23 0 32 7 50 41 21 42 103 129 121 129 6 0 9 -80 6
-225 -3 -219 -3 -224 -23 -219 -27 8 -80 41 -95 59 -7 9 -29 15 -52 15 -32 0
-50 -8 -87 -38 -25 -21 -58 -45 -72 -54 l-26 -17 3 47 c4 46 4 45 -10 -13 -21
-89 -49 -156 -127 -296 l-69 -126 113 -226 c138 -273 172 -368 172 -487 0
-107 -26 -200 -71 -246 -26 -28 -39 -34 -73 -34 -78 0 -137 77 -278 366 l-68
139 -5 -180 c-5 -165 -7 -183 -28 -217 -25 -40 -91 -78 -135 -78 -69 0 -137
57 -157 130 -7 27 -10 292 -8 817 3 764 3 779 24 823 29 64 85 110 132 110 20
0 51 -9 69 -20z m743 -462 c19 -13 45 -45 59 -73 l26 -50 0 -565 c0 -615 0
-610 -57 -675 -43 -50 -86 -61 -141 -37 -25 11 -47 25 -51 31 -4 6 2 40 14 77
38 124 19 280 -51 418 l-30 59 3 341 3 341 28 57 c46 94 125 124 197 76z
m-212 -80 c-22 -42 -23 -52 -26 -373 l-3 -329 -88 169 -88 170 88 172 c49 95
89 179 89 187 0 12 35 46 47 46 2 0 -7 -19 -19 -42z m2045 -312 c70 -53 89
-357 30 -480 -34 -72 -98 -73 -131 -4 -32 67 -45 157 -39 266 6 114 19 160 53
202 28 32 58 38 87 16z"/>
<path d="M2194 1878 c-43 -11 -82 -71 -94 -144 -17 -101 -12 -302 8 -354 13
-34 17 -76 17 -175 0 -143 -6 -165 -65 -222 l-31 -31 37 -58 c51 -79 74 -166
81 -299 4 -83 1 -131 -12 -195 -28 -137 -28 -142 -3 -170 54 -59 57 -60 263
-60 104 0 200 3 212 6 13 4 37 29 55 58 29 46 32 58 32 131 0 84 -19 139 -61
177 -47 43 -139 59 -224 39 -21 -5 -42 -5 -48 -2 -7 5 -11 194 -13 596 -3 625
-3 617 -49 678 -19 23 -67 35 -105 25z"/>
<path d="M1295 946 c-28 -42 -40 -155 -27 -241 13 -84 28 -115 55 -115 33 0
51 64 52 185 0 91 -4 117 -20 149 -25 49 -39 54 -60 22z m53 -28 c39 -80 17
-318 -30 -318 -40 0 -59 237 -25 313 19 43 35 44 55 5z"/>
<path d="M1080 1831 c0 -4 -18 -31 -40 -59 -39 -49 -40 -51 -40 -133 l0 -84
44 -27 c24 -16 46 -28 50 -28 3 0 6 77 6 170 0 107 -4 170 -10 170 -5 0 -10
-4 -10 -9z"/>
<path d="M790 1664 l0 -166 23 14 c12 8 32 21 45 29 20 13 22 22 22 97 0 82
-1 84 -41 137 -23 30 -43 55 -45 55 -2 0 -4 -75 -4 -166z"/>
<path d="M774 1610 c0 -52 1 -74 3 -47 2 26 2 68 0 95 -2 26 -3 4 -3 -48z"/>
<path d="M910 1625 l0 -65 30 0 30 0 0 65 0 65 -30 0 -30 0 0 -65z"/>
<path d="M2767 985 c-26 -25 -37 -83 -37 -185 1 -224 96 -245 108 -24 5 102
-9 183 -38 209 -16 15 -19 15 -33 0z m52 -60 c23 -90 8 -258 -24 -285 -11 -9
-18 -5 -32 16 -15 23 -18 49 -18 154 0 105 3 131 18 154 23 35 40 23 56 -39z"/>
<path d="M3705 1970 c40 -7 57 -17 86 -48 57 -65 62 -90 66 -366 l5 -249 47
74 c76 117 137 167 190 154 14 -3 43 -23 65 -43 26 -25 35 -30 27 -15 -6 12
-22 30 -36 42 -77 60 -165 17 -248 -122 l-35 -58 -4 238 c-3 237 -3 238 -31
295 -34 70 -73 100 -135 104 l-47 3 50 -9z"/>
<path d="M3610 1944 c-17 -15 -37 -39 -45 -55 -25 -47 -17 -46 13 2 16 24 39
52 53 61 13 9 21 17 17 17 -3 1 -20 -11 -38 -25z"/>
<path d="M3652 1894 c-12 -8 -32 -34 -44 -57 -21 -38 -23 -59 -26 -233 -3
-174 -2 -195 16 -230 31 -62 59 -153 83 -265 18 -87 22 -138 22 -304 1 -184
-1 -209 -27 -320 -15 -65 -39 -141 -52 -169 -30 -63 -30 -81 1 -122 27 -36 73
-51 104 -35 62 34 90 136 91 334 0 70 4 127 8 127 5 0 23 -35 42 -77 95 -223
124 -283 158 -328 48 -64 83 -71 135 -25 48 41 61 86 54 179 -5 72 -20 118
-92 275 -7 17 -26 60 -41 96 -14 36 -37 86 -50 112 -20 39 -21 48 -9 58 18 15
102 166 134 239 13 31 25 84 28 125 9 117 -41 206 -115 206 -55 0 -102 -54
-199 -229 l-52 -95 -3 315 -3 314 -27 52 c-39 73 -86 93 -136 57z"/>
<path d="M3275 1481 c-66 -31 -134 -120 -170 -225 -12 -35 -11 -50 8 -135 18
-81 21 -129 21 -306 1 -182 -2 -225 -22 -320 -23 -108 -23 -111 -5 -150 72
-155 177 -240 277 -221 90 17 174 126 224 292 41 135 42 142 53 273 23 283
-48 607 -159 732 -69 77 -147 97 -227 60z m112 -406 c42 -29 65 -117 66 -250
1 -141 -14 -213 -53 -255 -40 -42 -73 -40 -104 8 -34 51 -47 118 -47 237 0
143 19 221 65 257 26 22 45 22 73 3z"/>
<path d="M3317 951 c-37 -93 -28 -280 16 -324 l20 -20 18 22 c59 73 44 361
-19 361 -14 0 -25 -12 -35 -39z m63 -7 c10 -20 15 -62 15 -139 0 -111 -13
-163 -43 -173 -42 -13 -64 229 -29 311 19 44 35 44 57 1z"/>
<path d="M4201 1445 c0 -5 6 -19 14 -29 8 -11 15 -15 15 -10 0 6 -7 19 -15 30
-8 10 -14 15 -14 9z"/>
<path d="M4233 1310 c0 -41 2 -58 4 -37 2 20 2 54 0 75 -2 20 -4 3 -4 -38z"/>
<path d="M4216 1190 c-3 -22 -37 -101 -75 -176 l-69 -136 35 -76 c131 -285
175 -463 141 -574 -14 -49 -79 -124 -114 -132 -40 -10 -90 11 -124 54 -26 33
-96 171 -136 269 -9 21 -11 15 -12 -35 -4 -154 -47 -253 -122 -283 -20 -8 -21
-10 -6 -10 11 -1 38 18 61 42 45 48 64 99 74 200 l6 61 24 -60 c37 -92 86
-176 126 -214 30 -29 43 -35 80 -35 54 0 89 24 130 90 28 46 30 54 29 149 0
89 -4 114 -37 208 -20 59 -61 162 -91 228 l-55 122 30 47 c47 77 108 214 115
259 4 23 4 42 2 42 -3 0 -8 -18 -12 -40z"/>
</g>
</svg>
